<?xml version="1.0" encoding="iso-8859-1"?>
<!-- Generator: Adobe Illustrator 25.0.0, SVG Export Plug-In . SVG Version: 6.00 Build 0)  -->
<svg version="1.1" id="Layer_1" xmlns="http://www.w3.org/2000/svg" xmlns:xlink="http://www.w3.org/1999/xlink" x="0px" y="0px"
	 viewBox="0 0 181.871 50.17" style="enable-background:new 0 0 181.871 50.17;" xml:space="preserve">
<g>
	<defs>
		<rect id="SVGID_1_" y="0" width="181.871" height="50.17"/>
	</defs>
	<clipPath id="SVGID_2_">
		<use xlink:href="#SVGID_1_"  style="overflow:visible;"/>
	</clipPath>
	<path style="clip-path:url(#SVGID_2_);fill:#B0CA36;" d="M155.038,30.84L155.038,30.84c-1.07,0.004-2.096-0.421-2.85-1.18
		l-11.18-11.12c-1.571-1.553-1.586-4.086-0.033-5.657c0.011-0.011,0.022-0.022,0.033-0.033c1.583-1.571,4.137-1.571,5.72,0
		l8.31,8.29l19.93-19.85c1.583-1.571,4.137-1.571,5.72,0c1.568,1.556,1.579,4.088,0.023,5.657c-0.008,0.008-0.015,0.015-0.023,0.023
		l-22.79,22.69C157.142,30.421,156.111,30.846,155.038,30.84"/>
	<path style="clip-path:url(#SVGID_2_);fill:#002B38;" d="M174.288,50c-1.072,0.009-2.102-0.413-2.86-1.17l-10.81-10.77
		c-1.568-1.556-1.579-4.088-0.023-5.657c0.008-0.008,0.015-0.015,0.023-0.023c1.547-1.577,4.08-1.601,5.657-0.053
		c0.018,0.017,0.035,0.035,0.053,0.053l10.81,10.76c1.58,1.544,1.608,4.077,0.064,5.656C176.437,49.58,175.383,50.015,174.288,50"/>
	<path style="clip-path:url(#SVGID_2_);fill:#002B38;" d="M59.398,29.14h14.42c5.799,0,10.5-4.701,10.5-10.5s-4.701-10.5-10.5-10.5
		h-14.42V29.14z M55.358,50c-2.209,0-4-1.791-4-4V4.13c0-2.209,1.791-4,4-4h18.46c10.234,0,18.53,8.296,18.53,18.53
		s-8.296,18.53-18.53,18.53h-14.42V46c0,2.209-1.791,4-4,4"/>
	<path style="clip-path:url(#SVGID_2_);fill:#002B38;" d="M25.028,50.16C11.177,50.131-0.029,38.879,0,25.028S11.28-0.029,25.132,0
		c4.802,0.01,9.5,1.398,13.536,4c1.867,1.21,2.4,3.703,1.19,5.57c-1.21,1.867-3.703,2.4-5.57,1.19
		c-7.915-5.051-18.425-2.729-23.476,5.185C5.761,23.86,8.083,34.37,15.998,39.421c6.427,4.102,14.798,3.423,20.48-1.661V29.1h-11.46
		c-2.209,0-4-1.791-4-4s1.791-4,4-4h15.5c2.209,0,4,1.791,4,4v14.33c-0.001,1.019-0.391,1.999-1.09,2.74
		c-4.781,5.095-11.453,7.989-18.44,8"/>
	<path style="clip-path:url(#SVGID_2_);fill:#002B38;" d="M149.448,32.38c-1.547-1.577-4.08-1.601-5.657-0.053
		c-0.018,0.017-0.035,0.035-0.053,0.053l-9.62,9.62h-27.3V29.07h20.93c2.209,0,4-1.791,4-4s-1.791-4-4-4h-20.93V8.15h25.51
		c2.209,0,4-1.791,4-4s-1.791-4-4-4h-29.6c-2.209,0-4,1.791-4,4V46c0,2.209,1.791,4,4,4h33.09c1.07,0.001,2.098-0.419,2.86-1.17
		l10.81-10.77c1.568-1.556,1.579-4.088,0.023-5.657c-0.008-0.008-0.015-0.015-0.023-0.023"/>
</g>
</svg>
